<?xml version="1.0" standalone="no"?>
<svg xmlns="http://www.w3.org/2000/svg" viewBox="0 0 1440 700">
    <defs>
        <linearGradient id="grad1" x1="50%" y1="100%" x2="50%" y2="0%">
            <stop offset="0%" stop-color="#9333ea" />
            <stop offset="100%" stop-color="#6d28d9" />
        </linearGradient>
    </defs>
    <path fill="url(#grad1)" fill-opacity="1"
        d="M0,256L34.3,245.3C68.6,235,137,213,206,197.3C274.3,181,343,171,411,176C480,181,549,203,617,192C685.7,181,754,139,823,106.7C891.4,75,960,53,1029,53.3C1097.1,53,1166,75,1234,80C1302.9,85,1371,75,1406,69.3L1440,64L1440,0L1405.7,0C1371.4,0,1303,0,1234,0C1165.7,0,1097,0,1029,0C960,0,891,0,823,0C754.3,0,686,0,617,0C548.6,0,480,0,411,0C342.9,0,274,0,206,0C137.1,0,69,0,34,0L0,0Z">
    </path>
</svg>